# xmcd
#
# Track frame offsets:
#	150
#	24752
#	43355
#	79572
#	98265
#	116362
#	143540
#	169514
#	185639
#	202572
#	230385
#
# Disc length: 3337 seconds
#
# Revision: 1
# Processed by: cddbd v1.4PL0 Copyright (c) Steve Scherf et al.
# Submitted via: EasyCDDAExtractor 5.0.7
#
DISCID=720d070b
DTITLE=Tom Jessen's Dimestore Outfit - Night
DYEAR=2002
DGENRE=Country
TTITLE0=Eulogy
TTITLE1=River
TTITLE2=Exile
TTITLE3=Go Easy On My Eyes 
TTITLE4=Sunday Night Black
TTITLE5=All Those Treasure Daggers
TTITLE6=Let Me Let
TTITLE7=Something As Subtle As Time
TTITLE8=Black Sheep
TTITLE9=Let The Night Be Long
TTITLE10=Let It Go
EXTD=
EXTT0=
EXTT1=
EXTT2=
EXTT3=
EXTT4=
EXTT5=
EXTT6=
EXTT7=
EXTT8=
EXTT9=
EXTT10=
PLAYORDER=
